<svg xmlns="http://www.w3.org/2000/svg" viewBox="0 0 100 100" fill="currentColor">
  <path d="M72.5 18c-3.5 0-7.2 1.8-10.5 5.2C58.7 26.6 56 31.5 54 37c-2.8-1.2-6-2-9.5-2-8.5 0-16 4.2-21.5 10.8C17.5 53 14 62 14 71c0 3 .5 5.8 1.5 8.2.8 2 2.2 3.5 4 4.3 1.5.7 3.2.5 4.5-.2 1.5-.8 2.8-2.2 4-4 2.5-3.8 4.5-9 6.5-14.5 1.8-5 3.5-10.2 6-14.5 2.2-3.8 5-7 8.5-8.5 1-.5 2-.7 3-.7 2 0 3.8 1 5.5 2.8 1.8 2 3.2 4.8 4.2 8 1 3.2 1.5 6.8 1.5 10.5 0 2.5-.2 5-.8 7.2-.5 2-1.2 3.8-2.2 5-1 1.2-2 2-3.2 2.3-1 .3-2 .2-3-.3l-.5-.3c-1-.5-2-.2-2.5.8s-.2 2 .8 2.5l.8.4c1.8.8 3.8 1 5.8.5 2.2-.6 4-2 5.5-4 1.5-2 2.5-4.2 3.2-6.8.7-2.8 1-5.8 1-8.8 0-4.2-.6-8.2-1.8-12-1.2-3.8-3-7-5.2-9.5-1.2-1.3-2.5-2.3-4-3 1-3.5 2.2-6.8 3.5-9.5 1.5-3 3.2-5.5 5-7.2 1.5-1.5 3-2.5 4.5-2.8.5-.1 1-.1 1.5 0 .8.2 1.5.7 2 1.5.8 1 1 2.5.8 4-.2 1.2-.5 2-1 2.8-.5.8-.5 1.8.2 2.5s1.8.5 2.5-.2c1-1.2 1.5-2.8 1.8-4.5.3-2.2 0-4.5-1.2-6.2-1-1.5-2.5-2.5-4.2-3-.8-.2-1.8-.3-2.8-.2z"/>
  <circle cx="68" cy="28" r="2.5"/>
</svg>
